<mxfile host="Electron" agent="Mozilla/5.0 (Windows NT 10.0; Win64; x64) AppleWebKit/537.36 (KHTML, like Gecko) draw.io/26.1.1 Chrome/132.0.6834.210 Electron/34.3.3 Safari/537.36" version="26.1.1">
  <diagram name="Pagina-1" id="K3jqJvZameDS2ktDHQ_t">
    <mxGraphModel dx="1889" dy="1788" grid="1" gridSize="10" guides="1" tooltips="1" connect="1" arrows="1" fold="1" page="1" pageScale="1" pageWidth="827" pageHeight="1169" math="0" shadow="0">
      <root>
        <mxCell id="0" />
        <mxCell id="1" parent="0" />
        <mxCell id="s8Pb07IwUwWcLUqy1bKp-1" value="Evento" style="swimlane;childLayout=stackLayout;horizontal=1;startSize=30;horizontalStack=0;rounded=1;fontSize=14;fontStyle=0;strokeWidth=2;resizeParent=0;resizeLast=1;shadow=0;dashed=0;align=center;arcSize=4;whiteSpace=wrap;html=1;" vertex="1" parent="1">
          <mxGeometry x="177" y="310" width="170" height="170" as="geometry" />
        </mxCell>
        <mxCell id="s8Pb07IwUwWcLUqy1bKp-2" value="+ Titolo {PK}: String&lt;div&gt;+ Sede: String&lt;/div&gt;&lt;div&gt;+ Datainizio: Data&lt;/div&gt;&lt;div&gt;+Datafine: Data&lt;/div&gt;&lt;div&gt;+Maxiscritti: Int&lt;/div&gt;&lt;div&gt;+MaxTeam: Int&lt;/div&gt;&lt;div&gt;+DescrizioneProblema&lt;span style=&quot;background-color: transparent; color: light-dark(rgb(0, 0, 0), rgb(255, 255, 255));&quot;&gt;: String&lt;/span&gt;&lt;/div&gt;&lt;div&gt;+ DataInizioReg: Data&lt;div&gt;+ DataFineReg: Data&lt;/div&gt;&lt;/div&gt;" style="align=left;strokeColor=none;fillColor=none;spacingLeft=4;spacingRight=4;fontSize=12;verticalAlign=top;resizable=0;rotatable=0;part=1;html=1;whiteSpace=wrap;" vertex="1" parent="s8Pb07IwUwWcLUqy1bKp-1">
          <mxGeometry y="30" width="170" height="140" as="geometry" />
        </mxCell>
        <mxCell id="s8Pb07IwUwWcLUqy1bKp-3" value="Organizzatore" style="swimlane;childLayout=stackLayout;horizontal=1;startSize=30;horizontalStack=0;rounded=1;fontSize=14;fontStyle=0;strokeWidth=2;resizeParent=0;resizeLast=1;shadow=0;dashed=0;align=center;arcSize=4;whiteSpace=wrap;html=1;" vertex="1" parent="1">
          <mxGeometry x="458" y="120" width="176" height="120" as="geometry" />
        </mxCell>
        <mxCell id="s8Pb07IwUwWcLUqy1bKp-4" value="+ CodiceFiscale {PK}: String&lt;div&gt;+ FNome: String&lt;/div&gt;&lt;div&gt;+ MNome: String&lt;/div&gt;&lt;div&gt;+ LNome: String&lt;/div&gt;&lt;div&gt;+ DataNascita: Data&lt;/div&gt;" style="align=left;strokeColor=none;fillColor=none;spacingLeft=4;spacingRight=4;fontSize=12;verticalAlign=top;resizable=0;rotatable=0;part=1;html=1;whiteSpace=wrap;" vertex="1" parent="s8Pb07IwUwWcLUqy1bKp-3">
          <mxGeometry y="30" width="176" height="90" as="geometry" />
        </mxCell>
        <mxCell id="s8Pb07IwUwWcLUqy1bKp-6" value="Utente" style="swimlane;childLayout=stackLayout;horizontal=1;startSize=30;horizontalStack=0;rounded=1;fontSize=14;fontStyle=0;strokeWidth=2;resizeParent=0;resizeLast=1;shadow=0;dashed=0;align=center;arcSize=4;whiteSpace=wrap;html=1;" vertex="1" parent="1">
          <mxGeometry x="174" y="790" width="176" height="120" as="geometry" />
        </mxCell>
        <mxCell id="s8Pb07IwUwWcLUqy1bKp-7" value="+ CodiceFiscale {PK}: String&lt;div&gt;+ FNome: String&lt;/div&gt;&lt;div&gt;+ MNome: String&lt;/div&gt;&lt;div&gt;+ LNome: String&lt;/div&gt;&lt;div&gt;+ DataNascita: Data&lt;/div&gt;" style="align=left;strokeColor=none;fillColor=none;spacingLeft=4;spacingRight=4;fontSize=12;verticalAlign=top;resizable=0;rotatable=0;part=1;html=1;whiteSpace=wrap;" vertex="1" parent="s8Pb07IwUwWcLUqy1bKp-6">
          <mxGeometry y="30" width="176" height="90" as="geometry" />
        </mxCell>
        <mxCell id="s8Pb07IwUwWcLUqy1bKp-63" style="edgeStyle=orthogonalEdgeStyle;rounded=0;orthogonalLoop=1;jettySize=auto;html=1;exitX=0.5;exitY=0;exitDx=0;exitDy=0;endArrow=none;startFill=0;" edge="1" parent="1" source="s8Pb07IwUwWcLUqy1bKp-10">
          <mxGeometry relative="1" as="geometry">
            <mxPoint x="348" y="388" as="targetPoint" />
            <Array as="points">
              <mxPoint x="502" y="388" />
            </Array>
          </mxGeometry>
        </mxCell>
        <mxCell id="s8Pb07IwUwWcLUqy1bKp-10" value="UtenteRegistrato" style="swimlane;childLayout=stackLayout;horizontal=1;startSize=30;horizontalStack=0;rounded=1;fontSize=14;fontStyle=0;strokeWidth=2;resizeParent=0;resizeLast=1;shadow=0;dashed=0;align=center;arcSize=4;whiteSpace=wrap;html=1;" vertex="1" parent="1">
          <mxGeometry x="414" y="800" width="176" height="60" as="geometry" />
        </mxCell>
        <mxCell id="s8Pb07IwUwWcLUqy1bKp-55" style="edgeStyle=orthogonalEdgeStyle;rounded=0;orthogonalLoop=1;jettySize=auto;html=1;entryX=1;entryY=0.5;entryDx=0;entryDy=0;endArrow=diamondThin;startFill=0;startArrow=none;endFill=0;endSize=20;" edge="1" parent="1" source="s8Pb07IwUwWcLUqy1bKp-13" target="s8Pb07IwUwWcLUqy1bKp-10">
          <mxGeometry relative="1" as="geometry" />
        </mxCell>
        <mxCell id="s8Pb07IwUwWcLUqy1bKp-58" style="edgeStyle=orthogonalEdgeStyle;rounded=0;orthogonalLoop=1;jettySize=auto;html=1;exitX=0.5;exitY=0;exitDx=0;exitDy=0;entryX=1;entryY=0.25;entryDx=0;entryDy=0;endArrow=none;startFill=0;" edge="1" parent="1" source="s8Pb07IwUwWcLUqy1bKp-13" target="s8Pb07IwUwWcLUqy1bKp-4">
          <mxGeometry relative="1" as="geometry">
            <mxPoint x="734.2352941176473" y="-110" as="targetPoint" />
            <Array as="points">
              <mxPoint x="734" y="173" />
            </Array>
          </mxGeometry>
        </mxCell>
        <mxCell id="s8Pb07IwUwWcLUqy1bKp-71" style="edgeStyle=orthogonalEdgeStyle;rounded=0;orthogonalLoop=1;jettySize=auto;html=1;exitX=0.5;exitY=1;exitDx=0;exitDy=0;entryX=0.155;entryY=1.032;entryDx=0;entryDy=0;entryPerimeter=0;endArrow=none;startFill=0;" edge="1" parent="1" source="s8Pb07IwUwWcLUqy1bKp-13" target="s8Pb07IwUwWcLUqy1bKp-19">
          <mxGeometry relative="1" as="geometry">
            <mxPoint x="200" y="740" as="targetPoint" />
            <Array as="points">
              <mxPoint x="734" y="950" />
              <mxPoint x="110" y="950" />
              <mxPoint x="110" y="740" />
              <mxPoint x="201" y="740" />
            </Array>
          </mxGeometry>
        </mxCell>
        <mxCell id="s8Pb07IwUwWcLUqy1bKp-13" value="Giudice" style="swimlane;childLayout=stackLayout;horizontal=1;startSize=30;horizontalStack=0;rounded=1;fontSize=14;fontStyle=0;strokeWidth=2;resizeParent=0;resizeLast=1;shadow=0;dashed=0;align=center;arcSize=4;whiteSpace=wrap;html=1;" vertex="1" parent="1">
          <mxGeometry x="646" y="670" width="176" height="60" as="geometry" />
        </mxCell>
        <mxCell id="s8Pb07IwUwWcLUqy1bKp-36" style="edgeStyle=orthogonalEdgeStyle;rounded=0;orthogonalLoop=1;jettySize=auto;html=1;exitX=0.5;exitY=0;exitDx=0;exitDy=0;entryX=0.5;entryY=1;entryDx=0;entryDy=0;endArrow=none;startFill=0;" edge="1" parent="1" source="s8Pb07IwUwWcLUqy1bKp-18" target="s8Pb07IwUwWcLUqy1bKp-2">
          <mxGeometry relative="1" as="geometry" />
        </mxCell>
        <mxCell id="s8Pb07IwUwWcLUqy1bKp-18" value="Team" style="swimlane;childLayout=stackLayout;horizontal=1;startSize=30;horizontalStack=0;rounded=1;fontSize=14;fontStyle=0;strokeWidth=2;resizeParent=0;resizeLast=1;shadow=0;dashed=0;align=center;arcSize=4;whiteSpace=wrap;html=1;" vertex="1" parent="1">
          <mxGeometry x="174" y="640" width="176" height="70" as="geometry" />
        </mxCell>
        <mxCell id="s8Pb07IwUwWcLUqy1bKp-19" value="+ IdTeam {PK}: Int&lt;div&gt;+ NumPartecipanti: Int&lt;/div&gt;&lt;div&gt;&amp;nbsp;&lt;/div&gt;" style="align=left;strokeColor=none;fillColor=none;spacingLeft=4;spacingRight=4;fontSize=12;verticalAlign=top;resizable=0;rotatable=0;part=1;html=1;whiteSpace=wrap;" vertex="1" parent="s8Pb07IwUwWcLUqy1bKp-18">
          <mxGeometry y="30" width="176" height="40" as="geometry" />
        </mxCell>
        <mxCell id="s8Pb07IwUwWcLUqy1bKp-48" style="edgeStyle=orthogonalEdgeStyle;rounded=0;orthogonalLoop=1;jettySize=auto;html=1;entryX=0;entryY=0.5;entryDx=0;entryDy=0;endArrow=none;startFill=0;" edge="1" parent="1" source="s8Pb07IwUwWcLUqy1bKp-22" target="s8Pb07IwUwWcLUqy1bKp-18">
          <mxGeometry relative="1" as="geometry" />
        </mxCell>
        <mxCell id="s8Pb07IwUwWcLUqy1bKp-22" value="Progressi" style="swimlane;childLayout=stackLayout;horizontal=1;startSize=30;horizontalStack=0;rounded=1;fontSize=14;fontStyle=0;strokeWidth=2;resizeParent=0;resizeLast=1;shadow=0;dashed=0;align=center;arcSize=4;whiteSpace=wrap;html=1;" vertex="1" parent="1">
          <mxGeometry x="-200" y="640" width="176" height="70" as="geometry" />
        </mxCell>
        <mxCell id="s8Pb07IwUwWcLUqy1bKp-23" value="+ Data: DataProgresso&lt;div&gt;+ TestoDocumento: String&lt;/div&gt;" style="align=left;strokeColor=none;fillColor=none;spacingLeft=4;spacingRight=4;fontSize=12;verticalAlign=top;resizable=0;rotatable=0;part=1;html=1;whiteSpace=wrap;" vertex="1" parent="s8Pb07IwUwWcLUqy1bKp-22">
          <mxGeometry y="30" width="176" height="40" as="geometry" />
        </mxCell>
        <mxCell id="s8Pb07IwUwWcLUqy1bKp-31" style="edgeStyle=orthogonalEdgeStyle;rounded=0;orthogonalLoop=1;jettySize=auto;html=1;entryX=0;entryY=0.5;entryDx=0;entryDy=0;endArrow=none;startFill=0;" edge="1" parent="1">
          <mxGeometry relative="1" as="geometry">
            <mxPoint x="458" y="172" as="sourcePoint" />
            <mxPoint x="177" y="412" as="targetPoint" />
            <Array as="points">
              <mxPoint x="40" y="172" />
              <mxPoint x="40" y="410" />
              <mxPoint x="177" y="410" />
            </Array>
          </mxGeometry>
        </mxCell>
        <mxCell id="s8Pb07IwUwWcLUqy1bKp-37" value="" style="shape=table;startSize=0;container=1;collapsible=1;childLayout=tableLayout;fixedRows=1;rowLines=0;fontStyle=0;align=center;resizeLast=1;strokeColor=none;fillColor=none;collapsible=0;whiteSpace=wrap;html=1;" vertex="1" parent="1">
          <mxGeometry x="234" y="550" width="180" height="30" as="geometry" />
        </mxCell>
        <mxCell id="s8Pb07IwUwWcLUqy1bKp-38" value="" style="shape=tableRow;horizontal=0;startSize=0;swimlaneHead=0;swimlaneBody=0;fillColor=none;collapsible=0;dropTarget=0;points=[[0,0.5],[1,0.5]];portConstraint=eastwest;top=0;left=0;right=0;bottom=0;" vertex="1" parent="s8Pb07IwUwWcLUqy1bKp-37">
          <mxGeometry width="180" height="30" as="geometry" />
        </mxCell>
        <mxCell id="s8Pb07IwUwWcLUqy1bKp-39" value="" style="shape=partialRectangle;connectable=0;fillColor=none;top=0;left=0;bottom=0;right=0;editable=1;overflow=hidden;" vertex="1" parent="s8Pb07IwUwWcLUqy1bKp-38">
          <mxGeometry width="30" height="30" as="geometry">
            <mxRectangle width="30" height="30" as="alternateBounds" />
          </mxGeometry>
        </mxCell>
        <mxCell id="s8Pb07IwUwWcLUqy1bKp-40" value="Partecipa" style="shape=partialRectangle;connectable=0;fillColor=none;top=0;left=0;bottom=0;right=0;align=left;spacingLeft=6;overflow=hidden;" vertex="1" parent="s8Pb07IwUwWcLUqy1bKp-38">
          <mxGeometry x="30" width="150" height="30" as="geometry">
            <mxRectangle width="150" height="30" as="alternateBounds" />
          </mxGeometry>
        </mxCell>
        <mxCell id="s8Pb07IwUwWcLUqy1bKp-46" style="edgeStyle=orthogonalEdgeStyle;rounded=0;orthogonalLoop=1;jettySize=auto;html=1;endArrow=none;startFill=1;startArrow=diamondThin;startSize=20;" edge="1" parent="1">
          <mxGeometry relative="1" as="geometry">
            <mxPoint x="266.00000000000045" y="710" as="sourcePoint" />
            <mxPoint x="477" y="860" as="targetPoint" />
            <Array as="points">
              <mxPoint x="266" y="770" />
              <mxPoint x="154" y="770" />
              <mxPoint x="154" y="930" />
              <mxPoint x="504" y="930" />
              <mxPoint x="504" y="860" />
            </Array>
          </mxGeometry>
        </mxCell>
        <mxCell id="s8Pb07IwUwWcLUqy1bKp-50" value="" style="shape=table;startSize=0;container=1;collapsible=1;childLayout=tableLayout;fixedRows=1;rowLines=0;fontStyle=0;align=center;resizeLast=1;strokeColor=none;fillColor=none;collapsible=0;whiteSpace=wrap;html=1;" vertex="1" parent="1">
          <mxGeometry x="-6" y="640" width="180" height="30" as="geometry" />
        </mxCell>
        <mxCell id="s8Pb07IwUwWcLUqy1bKp-51" value="" style="shape=tableRow;horizontal=0;startSize=0;swimlaneHead=0;swimlaneBody=0;fillColor=none;collapsible=0;dropTarget=0;points=[[0,0.5],[1,0.5]];portConstraint=eastwest;top=0;left=0;right=0;bottom=0;" vertex="1" parent="s8Pb07IwUwWcLUqy1bKp-50">
          <mxGeometry width="180" height="30" as="geometry" />
        </mxCell>
        <mxCell id="s8Pb07IwUwWcLUqy1bKp-52" value="" style="shape=partialRectangle;connectable=0;fillColor=none;top=0;left=0;bottom=0;right=0;editable=1;overflow=hidden;" vertex="1" parent="s8Pb07IwUwWcLUqy1bKp-51">
          <mxGeometry width="30" height="30" as="geometry">
            <mxRectangle width="30" height="30" as="alternateBounds" />
          </mxGeometry>
        </mxCell>
        <mxCell id="s8Pb07IwUwWcLUqy1bKp-53" value="ProgressiReport" style="shape=partialRectangle;connectable=0;fillColor=none;top=0;left=0;bottom=0;right=0;align=left;spacingLeft=6;overflow=hidden;" vertex="1" parent="s8Pb07IwUwWcLUqy1bKp-51">
          <mxGeometry x="30" width="150" height="30" as="geometry">
            <mxRectangle width="150" height="30" as="alternateBounds" />
          </mxGeometry>
        </mxCell>
        <mxCell id="s8Pb07IwUwWcLUqy1bKp-54" style="edgeStyle=orthogonalEdgeStyle;rounded=0;orthogonalLoop=1;jettySize=auto;html=1;exitX=0;exitY=0.5;exitDx=0;exitDy=0;entryX=1;entryY=0.107;entryDx=0;entryDy=0;entryPerimeter=0;endArrow=diamondThin;startFill=0;startArrow=none;sourcePerimeterSpacing=0;startSize=6;strokeColor=default;endFill=1;endSize=20;" edge="1" parent="1" source="s8Pb07IwUwWcLUqy1bKp-10" target="s8Pb07IwUwWcLUqy1bKp-7">
          <mxGeometry relative="1" as="geometry" />
        </mxCell>
        <mxCell id="s8Pb07IwUwWcLUqy1bKp-59" value="" style="shape=table;startSize=0;container=1;collapsible=1;childLayout=tableLayout;fixedRows=1;rowLines=0;fontStyle=0;align=center;resizeLast=1;strokeColor=none;fillColor=none;collapsible=0;whiteSpace=wrap;html=1;" vertex="1" parent="1">
          <mxGeometry x="620" y="340" width="180" height="30" as="geometry" />
        </mxCell>
        <mxCell id="s8Pb07IwUwWcLUqy1bKp-60" value="" style="shape=tableRow;horizontal=0;startSize=0;swimlaneHead=0;swimlaneBody=0;fillColor=none;collapsible=0;dropTarget=0;points=[[0,0.5],[1,0.5]];portConstraint=eastwest;top=0;left=0;right=0;bottom=0;" vertex="1" parent="s8Pb07IwUwWcLUqy1bKp-59">
          <mxGeometry width="180" height="30" as="geometry" />
        </mxCell>
        <mxCell id="s8Pb07IwUwWcLUqy1bKp-61" value="" style="shape=partialRectangle;connectable=0;fillColor=none;top=0;left=0;bottom=0;right=0;editable=1;overflow=hidden;" vertex="1" parent="s8Pb07IwUwWcLUqy1bKp-60">
          <mxGeometry width="30" height="30" as="geometry">
            <mxRectangle width="30" height="30" as="alternateBounds" />
          </mxGeometry>
        </mxCell>
        <mxCell id="s8Pb07IwUwWcLUqy1bKp-62" value="Viene Scelto" style="shape=partialRectangle;connectable=0;fillColor=none;top=0;left=0;bottom=0;right=0;align=left;spacingLeft=6;overflow=hidden;" vertex="1" parent="s8Pb07IwUwWcLUqy1bKp-60">
          <mxGeometry x="30" width="150" height="30" as="geometry">
            <mxRectangle width="150" height="30" as="alternateBounds" />
          </mxGeometry>
        </mxCell>
        <mxCell id="s8Pb07IwUwWcLUqy1bKp-64" value="" style="shape=table;startSize=0;container=1;collapsible=1;childLayout=tableLayout;fixedRows=1;rowLines=0;fontStyle=0;align=center;resizeLast=1;strokeColor=none;fillColor=none;collapsible=0;whiteSpace=wrap;html=1;" vertex="1" parent="1">
          <mxGeometry x="414" y="550" width="180" height="30" as="geometry" />
        </mxCell>
        <mxCell id="s8Pb07IwUwWcLUqy1bKp-65" value="" style="shape=tableRow;horizontal=0;startSize=0;swimlaneHead=0;swimlaneBody=0;fillColor=none;collapsible=0;dropTarget=0;points=[[0,0.5],[1,0.5]];portConstraint=eastwest;top=0;left=0;right=0;bottom=0;" vertex="1" parent="s8Pb07IwUwWcLUqy1bKp-64">
          <mxGeometry width="180" height="30" as="geometry" />
        </mxCell>
        <mxCell id="s8Pb07IwUwWcLUqy1bKp-66" value="" style="shape=partialRectangle;connectable=0;fillColor=none;top=0;left=0;bottom=0;right=0;editable=1;overflow=hidden;" vertex="1" parent="s8Pb07IwUwWcLUqy1bKp-65">
          <mxGeometry width="30" height="30" as="geometry">
            <mxRectangle width="30" height="30" as="alternateBounds" />
          </mxGeometry>
        </mxCell>
        <mxCell id="s8Pb07IwUwWcLUqy1bKp-67" value="Iscritto" style="shape=partialRectangle;connectable=0;fillColor=none;top=0;left=0;bottom=0;right=0;align=left;spacingLeft=6;overflow=hidden;" vertex="1" parent="s8Pb07IwUwWcLUqy1bKp-65">
          <mxGeometry x="30" width="150" height="30" as="geometry">
            <mxRectangle width="150" height="30" as="alternateBounds" />
          </mxGeometry>
        </mxCell>
        <mxCell id="s8Pb07IwUwWcLUqy1bKp-75" style="edgeStyle=orthogonalEdgeStyle;rounded=0;orthogonalLoop=1;jettySize=auto;html=1;endArrow=none;startFill=0;dashed=1;dashPattern=8 8;" edge="1" parent="1" source="s8Pb07IwUwWcLUqy1bKp-73">
          <mxGeometry relative="1" as="geometry">
            <mxPoint x="520" y="950" as="targetPoint" />
          </mxGeometry>
        </mxCell>
        <mxCell id="s8Pb07IwUwWcLUqy1bKp-73" value="Voto" style="swimlane;childLayout=stackLayout;horizontal=1;startSize=30;horizontalStack=0;rounded=1;fontSize=14;fontStyle=0;strokeWidth=2;resizeParent=0;resizeLast=1;shadow=0;dashed=0;align=center;arcSize=4;whiteSpace=wrap;html=1;" vertex="1" parent="1">
          <mxGeometry x="460" y="1010" width="120" height="70" as="geometry" />
        </mxCell>
        <mxCell id="s8Pb07IwUwWcLUqy1bKp-74" value="+ Valutazione: Int" style="align=left;strokeColor=none;fillColor=none;spacingLeft=4;spacingRight=4;fontSize=12;verticalAlign=top;resizable=0;rotatable=0;part=1;html=1;whiteSpace=wrap;" vertex="1" parent="s8Pb07IwUwWcLUqy1bKp-73">
          <mxGeometry y="30" width="120" height="40" as="geometry" />
        </mxCell>
        <mxCell id="s8Pb07IwUwWcLUqy1bKp-80" value="" style="endArrow=none;html=1;rounded=0;entryX=0.5;entryY=0;entryDx=0;entryDy=0;" edge="1" parent="1" target="s8Pb07IwUwWcLUqy1bKp-22">
          <mxGeometry width="50" height="50" relative="1" as="geometry">
            <mxPoint x="790" y="670" as="sourcePoint" />
            <mxPoint x="-200" y="620" as="targetPoint" />
            <Array as="points">
              <mxPoint x="790" y="80" />
              <mxPoint x="-110" y="80" />
            </Array>
          </mxGeometry>
        </mxCell>
        <mxCell id="s8Pb07IwUwWcLUqy1bKp-83" style="edgeStyle=orthogonalEdgeStyle;rounded=0;orthogonalLoop=1;jettySize=auto;html=1;endArrow=none;startFill=0;dashed=1;dashPattern=8 8;entryX=0.5;entryY=1;entryDx=0;entryDy=0;" edge="1" parent="1" target="s8Pb07IwUwWcLUqy1bKp-85">
          <mxGeometry relative="1" as="geometry">
            <mxPoint x="310" y="-5" as="targetPoint" />
            <mxPoint x="310" y="80" as="sourcePoint" />
          </mxGeometry>
        </mxCell>
        <mxCell id="s8Pb07IwUwWcLUqy1bKp-84" value="Commenta" style="swimlane;childLayout=stackLayout;horizontal=1;startSize=30;horizontalStack=0;rounded=1;fontSize=14;fontStyle=0;strokeWidth=2;resizeParent=0;resizeLast=1;shadow=0;dashed=0;align=center;arcSize=4;whiteSpace=wrap;html=1;" vertex="1" parent="1">
          <mxGeometry x="250" y="-70" width="120" height="70" as="geometry" />
        </mxCell>
        <mxCell id="s8Pb07IwUwWcLUqy1bKp-85" value="+ Testo: String" style="align=left;strokeColor=none;fillColor=none;spacingLeft=4;spacingRight=4;fontSize=12;verticalAlign=top;resizable=0;rotatable=0;part=1;html=1;whiteSpace=wrap;" vertex="1" parent="s8Pb07IwUwWcLUqy1bKp-84">
          <mxGeometry y="30" width="120" height="40" as="geometry" />
        </mxCell>
        <mxCell id="s8Pb07IwUwWcLUqy1bKp-87" style="edgeStyle=orthogonalEdgeStyle;rounded=0;orthogonalLoop=1;jettySize=auto;html=1;entryX=0.75;entryY=0;entryDx=0;entryDy=0;endArrow=diamondThin;endFill=0;startSize=6;endSize=20;" edge="1" parent="1" source="s8Pb07IwUwWcLUqy1bKp-4" target="s8Pb07IwUwWcLUqy1bKp-10">
          <mxGeometry relative="1" as="geometry" />
        </mxCell>
        <mxCell id="s8Pb07IwUwWcLUqy1bKp-93" style="edgeStyle=orthogonalEdgeStyle;rounded=0;orthogonalLoop=1;jettySize=auto;html=1;exitX=1;exitY=0.75;exitDx=0;exitDy=0;entryX=0.75;entryY=0;entryDx=0;entryDy=0;endArrow=none;startFill=0;" edge="1" parent="1" source="s8Pb07IwUwWcLUqy1bKp-2" target="s8Pb07IwUwWcLUqy1bKp-6">
          <mxGeometry relative="1" as="geometry">
            <mxPoint x="300" y="770" as="targetPoint" />
            <Array as="points">
              <mxPoint x="421" y="430" />
              <mxPoint x="421" y="770" />
              <mxPoint x="306" y="770" />
            </Array>
          </mxGeometry>
        </mxCell>
        <mxCell id="s8Pb07IwUwWcLUqy1bKp-94" value="" style="shape=table;startSize=0;container=1;collapsible=1;childLayout=tableLayout;fixedRows=1;rowLines=0;fontStyle=0;align=center;resizeLast=1;strokeColor=none;fillColor=none;collapsible=0;whiteSpace=wrap;html=1;" vertex="1" parent="1">
          <mxGeometry x="330" y="585" width="180" height="30" as="geometry" />
        </mxCell>
        <mxCell id="s8Pb07IwUwWcLUqy1bKp-95" value="" style="shape=tableRow;horizontal=0;startSize=0;swimlaneHead=0;swimlaneBody=0;fillColor=none;collapsible=0;dropTarget=0;points=[[0,0.5],[1,0.5]];portConstraint=eastwest;top=0;left=0;right=0;bottom=0;" vertex="1" parent="s8Pb07IwUwWcLUqy1bKp-94">
          <mxGeometry width="180" height="30" as="geometry" />
        </mxCell>
        <mxCell id="s8Pb07IwUwWcLUqy1bKp-96" value="" style="shape=partialRectangle;connectable=0;fillColor=none;top=0;left=0;bottom=0;right=0;editable=1;overflow=hidden;" vertex="1" parent="s8Pb07IwUwWcLUqy1bKp-95">
          <mxGeometry width="30" height="30" as="geometry">
            <mxRectangle width="30" height="30" as="alternateBounds" />
          </mxGeometry>
        </mxCell>
        <mxCell id="s8Pb07IwUwWcLUqy1bKp-97" value="Registra" style="shape=partialRectangle;connectable=0;fillColor=none;top=0;left=0;bottom=0;right=0;align=left;spacingLeft=6;overflow=hidden;" vertex="1" parent="s8Pb07IwUwWcLUqy1bKp-95">
          <mxGeometry x="30" width="150" height="30" as="geometry">
            <mxRectangle width="150" height="30" as="alternateBounds" />
          </mxGeometry>
        </mxCell>
        <mxCell id="s8Pb07IwUwWcLUqy1bKp-102" value="" style="shape=table;startSize=0;container=1;collapsible=1;childLayout=tableLayout;fixedRows=1;rowLines=0;fontStyle=0;align=center;resizeLast=1;strokeColor=none;fillColor=none;collapsible=0;whiteSpace=wrap;html=1;" vertex="1" parent="1">
          <mxGeometry x="70" y="140" width="180" height="30" as="geometry" />
        </mxCell>
        <mxCell id="s8Pb07IwUwWcLUqy1bKp-103" value="" style="shape=tableRow;horizontal=0;startSize=0;swimlaneHead=0;swimlaneBody=0;fillColor=none;collapsible=0;dropTarget=0;points=[[0,0.5],[1,0.5]];portConstraint=eastwest;top=0;left=0;right=0;bottom=0;" vertex="1" parent="s8Pb07IwUwWcLUqy1bKp-102">
          <mxGeometry width="180" height="30" as="geometry" />
        </mxCell>
        <mxCell id="s8Pb07IwUwWcLUqy1bKp-104" value="" style="shape=partialRectangle;connectable=0;fillColor=none;top=0;left=0;bottom=0;right=0;editable=1;overflow=hidden;" vertex="1" parent="s8Pb07IwUwWcLUqy1bKp-103">
          <mxGeometry width="30" height="30" as="geometry">
            <mxRectangle width="30" height="30" as="alternateBounds" />
          </mxGeometry>
        </mxCell>
        <mxCell id="s8Pb07IwUwWcLUqy1bKp-105" value="Organizza" style="shape=partialRectangle;connectable=0;fillColor=none;top=0;left=0;bottom=0;right=0;align=left;spacingLeft=6;overflow=hidden;" vertex="1" parent="s8Pb07IwUwWcLUqy1bKp-103">
          <mxGeometry x="30" width="150" height="30" as="geometry">
            <mxRectangle width="150" height="30" as="alternateBounds" />
          </mxGeometry>
        </mxCell>
        <mxCell id="s8Pb07IwUwWcLUqy1bKp-106" value="" style="shape=table;startSize=0;container=1;collapsible=1;childLayout=tableLayout;fixedRows=1;rowLines=0;fontStyle=0;align=center;resizeLast=1;strokeColor=none;fillColor=none;collapsible=0;whiteSpace=wrap;html=1;" vertex="1" parent="1">
          <mxGeometry x="380" y="140" width="180" height="30" as="geometry" />
        </mxCell>
        <mxCell id="s8Pb07IwUwWcLUqy1bKp-107" value="" style="shape=tableRow;horizontal=0;startSize=0;swimlaneHead=0;swimlaneBody=0;fillColor=none;collapsible=0;dropTarget=0;points=[[0,0.5],[1,0.5]];portConstraint=eastwest;top=0;left=0;right=0;bottom=0;" vertex="1" parent="s8Pb07IwUwWcLUqy1bKp-106">
          <mxGeometry width="180" height="30" as="geometry" />
        </mxCell>
        <mxCell id="s8Pb07IwUwWcLUqy1bKp-108" value="" style="shape=partialRectangle;connectable=0;fillColor=none;top=0;left=0;bottom=0;right=0;editable=1;overflow=hidden;" vertex="1" parent="s8Pb07IwUwWcLUqy1bKp-107">
          <mxGeometry width="30" height="30" as="geometry">
            <mxRectangle width="30" height="30" as="alternateBounds" />
          </mxGeometry>
        </mxCell>
        <mxCell id="s8Pb07IwUwWcLUqy1bKp-109" value="1..1" style="shape=partialRectangle;connectable=0;fillColor=none;top=0;left=0;bottom=0;right=0;align=left;spacingLeft=6;overflow=hidden;" vertex="1" parent="s8Pb07IwUwWcLUqy1bKp-107">
          <mxGeometry x="30" width="150" height="30" as="geometry">
            <mxRectangle width="150" height="30" as="alternateBounds" />
          </mxGeometry>
        </mxCell>
        <mxCell id="s8Pb07IwUwWcLUqy1bKp-110" value="" style="shape=table;startSize=0;container=1;collapsible=1;childLayout=tableLayout;fixedRows=1;rowLines=0;fontStyle=0;align=center;resizeLast=1;strokeColor=none;fillColor=none;collapsible=0;whiteSpace=wrap;html=1;" vertex="1" parent="1">
          <mxGeometry x="80" y="380" width="180" height="30" as="geometry" />
        </mxCell>
        <mxCell id="s8Pb07IwUwWcLUqy1bKp-111" value="" style="shape=tableRow;horizontal=0;startSize=0;swimlaneHead=0;swimlaneBody=0;fillColor=none;collapsible=0;dropTarget=0;points=[[0,0.5],[1,0.5]];portConstraint=eastwest;top=0;left=0;right=0;bottom=0;" vertex="1" parent="s8Pb07IwUwWcLUqy1bKp-110">
          <mxGeometry width="180" height="30" as="geometry" />
        </mxCell>
        <mxCell id="s8Pb07IwUwWcLUqy1bKp-112" value="" style="shape=partialRectangle;connectable=0;fillColor=none;top=0;left=0;bottom=0;right=0;editable=1;overflow=hidden;" vertex="1" parent="s8Pb07IwUwWcLUqy1bKp-111">
          <mxGeometry width="30" height="30" as="geometry">
            <mxRectangle width="30" height="30" as="alternateBounds" />
          </mxGeometry>
        </mxCell>
        <mxCell id="s8Pb07IwUwWcLUqy1bKp-113" value="1..*" style="shape=partialRectangle;connectable=0;fillColor=none;top=0;left=0;bottom=0;right=0;align=left;spacingLeft=6;overflow=hidden;" vertex="1" parent="s8Pb07IwUwWcLUqy1bKp-111">
          <mxGeometry x="30" width="150" height="30" as="geometry">
            <mxRectangle width="150" height="30" as="alternateBounds" />
          </mxGeometry>
        </mxCell>
        <mxCell id="s8Pb07IwUwWcLUqy1bKp-115" value="" style="shape=table;startSize=0;container=1;collapsible=1;childLayout=tableLayout;fixedRows=1;rowLines=0;fontStyle=0;align=center;resizeLast=1;strokeColor=none;fillColor=none;collapsible=0;whiteSpace=wrap;html=1;" vertex="1" parent="1">
          <mxGeometry x="770" y="630" width="180" height="30" as="geometry" />
        </mxCell>
        <mxCell id="s8Pb07IwUwWcLUqy1bKp-116" value="" style="shape=tableRow;horizontal=0;startSize=0;swimlaneHead=0;swimlaneBody=0;fillColor=none;collapsible=0;dropTarget=0;points=[[0,0.5],[1,0.5]];portConstraint=eastwest;top=0;left=0;right=0;bottom=0;" vertex="1" parent="s8Pb07IwUwWcLUqy1bKp-115">
          <mxGeometry width="180" height="30" as="geometry" />
        </mxCell>
        <mxCell id="s8Pb07IwUwWcLUqy1bKp-117" value="" style="shape=partialRectangle;connectable=0;fillColor=none;top=0;left=0;bottom=0;right=0;editable=1;overflow=hidden;" vertex="1" parent="s8Pb07IwUwWcLUqy1bKp-116">
          <mxGeometry width="30" height="30" as="geometry">
            <mxRectangle width="30" height="30" as="alternateBounds" />
          </mxGeometry>
        </mxCell>
        <mxCell id="s8Pb07IwUwWcLUqy1bKp-118" value="1..*" style="shape=partialRectangle;connectable=0;fillColor=none;top=0;left=0;bottom=0;right=0;align=left;spacingLeft=6;overflow=hidden;" vertex="1" parent="s8Pb07IwUwWcLUqy1bKp-116">
          <mxGeometry x="30" width="150" height="30" as="geometry">
            <mxRectangle width="150" height="30" as="alternateBounds" />
          </mxGeometry>
        </mxCell>
        <mxCell id="s8Pb07IwUwWcLUqy1bKp-119" value="1..*" style="shape=partialRectangle;connectable=0;fillColor=none;top=0;left=0;bottom=0;right=0;align=left;spacingLeft=6;overflow=hidden;" vertex="1" parent="1">
          <mxGeometry x="-170" y="600" width="150" height="30" as="geometry">
            <mxRectangle width="150" height="30" as="alternateBounds" />
          </mxGeometry>
        </mxCell>
        <mxCell id="s8Pb07IwUwWcLUqy1bKp-120" value="" style="shape=table;startSize=0;container=1;collapsible=1;childLayout=tableLayout;fixedRows=1;rowLines=0;fontStyle=0;align=center;resizeLast=1;strokeColor=none;fillColor=none;collapsible=0;whiteSpace=wrap;html=1;" vertex="1" parent="1">
          <mxGeometry x="-50" y="680" width="180" height="30" as="geometry" />
        </mxCell>
        <mxCell id="s8Pb07IwUwWcLUqy1bKp-121" value="" style="shape=tableRow;horizontal=0;startSize=0;swimlaneHead=0;swimlaneBody=0;fillColor=none;collapsible=0;dropTarget=0;points=[[0,0.5],[1,0.5]];portConstraint=eastwest;top=0;left=0;right=0;bottom=0;" vertex="1" parent="s8Pb07IwUwWcLUqy1bKp-120">
          <mxGeometry width="180" height="30" as="geometry" />
        </mxCell>
        <mxCell id="s8Pb07IwUwWcLUqy1bKp-122" value="" style="shape=partialRectangle;connectable=0;fillColor=none;top=0;left=0;bottom=0;right=0;editable=1;overflow=hidden;" vertex="1" parent="s8Pb07IwUwWcLUqy1bKp-121">
          <mxGeometry width="30" height="30" as="geometry">
            <mxRectangle width="30" height="30" as="alternateBounds" />
          </mxGeometry>
        </mxCell>
        <mxCell id="s8Pb07IwUwWcLUqy1bKp-123" value="1..1" style="shape=partialRectangle;connectable=0;fillColor=none;top=0;left=0;bottom=0;right=0;align=left;spacingLeft=6;overflow=hidden;" vertex="1" parent="s8Pb07IwUwWcLUqy1bKp-121">
          <mxGeometry x="30" width="150" height="30" as="geometry">
            <mxRectangle width="150" height="30" as="alternateBounds" />
          </mxGeometry>
        </mxCell>
        <mxCell id="s8Pb07IwUwWcLUqy1bKp-124" value="" style="shape=table;startSize=0;container=1;collapsible=1;childLayout=tableLayout;fixedRows=1;rowLines=0;fontStyle=0;align=center;resizeLast=1;strokeColor=none;fillColor=none;collapsible=0;whiteSpace=wrap;html=1;" vertex="1" parent="1">
          <mxGeometry x="100" y="680" width="180" height="30" as="geometry" />
        </mxCell>
        <mxCell id="s8Pb07IwUwWcLUqy1bKp-125" value="" style="shape=tableRow;horizontal=0;startSize=0;swimlaneHead=0;swimlaneBody=0;fillColor=none;collapsible=0;dropTarget=0;points=[[0,0.5],[1,0.5]];portConstraint=eastwest;top=0;left=0;right=0;bottom=0;" vertex="1" parent="s8Pb07IwUwWcLUqy1bKp-124">
          <mxGeometry width="180" height="30" as="geometry" />
        </mxCell>
        <mxCell id="s8Pb07IwUwWcLUqy1bKp-126" value="" style="shape=partialRectangle;connectable=0;fillColor=none;top=0;left=0;bottom=0;right=0;editable=1;overflow=hidden;" vertex="1" parent="s8Pb07IwUwWcLUqy1bKp-125">
          <mxGeometry width="30" height="30" as="geometry">
            <mxRectangle width="30" height="30" as="alternateBounds" />
          </mxGeometry>
        </mxCell>
        <mxCell id="s8Pb07IwUwWcLUqy1bKp-127" value="1..*" style="shape=partialRectangle;connectable=0;fillColor=none;top=0;left=0;bottom=0;right=0;align=left;spacingLeft=6;overflow=hidden;" vertex="1" parent="s8Pb07IwUwWcLUqy1bKp-125">
          <mxGeometry x="30" width="150" height="30" as="geometry">
            <mxRectangle width="150" height="30" as="alternateBounds" />
          </mxGeometry>
        </mxCell>
        <mxCell id="s8Pb07IwUwWcLUqy1bKp-128" value="" style="shape=table;startSize=0;container=1;collapsible=1;childLayout=tableLayout;fixedRows=1;rowLines=0;fontStyle=0;align=center;resizeLast=1;strokeColor=none;fillColor=none;collapsible=0;whiteSpace=wrap;html=1;" vertex="1" parent="1">
          <mxGeometry x="240" y="490" width="180" height="30" as="geometry" />
        </mxCell>
        <mxCell id="s8Pb07IwUwWcLUqy1bKp-129" value="" style="shape=tableRow;horizontal=0;startSize=0;swimlaneHead=0;swimlaneBody=0;fillColor=none;collapsible=0;dropTarget=0;points=[[0,0.5],[1,0.5]];portConstraint=eastwest;top=0;left=0;right=0;bottom=0;" vertex="1" parent="s8Pb07IwUwWcLUqy1bKp-128">
          <mxGeometry width="180" height="30" as="geometry" />
        </mxCell>
        <mxCell id="s8Pb07IwUwWcLUqy1bKp-130" value="" style="shape=partialRectangle;connectable=0;fillColor=none;top=0;left=0;bottom=0;right=0;editable=1;overflow=hidden;" vertex="1" parent="s8Pb07IwUwWcLUqy1bKp-129">
          <mxGeometry width="30" height="30" as="geometry">
            <mxRectangle width="30" height="30" as="alternateBounds" />
          </mxGeometry>
        </mxCell>
        <mxCell id="s8Pb07IwUwWcLUqy1bKp-131" value="1..*" style="shape=partialRectangle;connectable=0;fillColor=none;top=0;left=0;bottom=0;right=0;align=left;spacingLeft=6;overflow=hidden;" vertex="1" parent="s8Pb07IwUwWcLUqy1bKp-129">
          <mxGeometry x="30" width="150" height="30" as="geometry">
            <mxRectangle width="150" height="30" as="alternateBounds" />
          </mxGeometry>
        </mxCell>
        <mxCell id="s8Pb07IwUwWcLUqy1bKp-132" value="" style="shape=table;startSize=0;container=1;collapsible=1;childLayout=tableLayout;fixedRows=1;rowLines=0;fontStyle=0;align=center;resizeLast=1;strokeColor=none;fillColor=none;collapsible=0;whiteSpace=wrap;html=1;" vertex="1" parent="1">
          <mxGeometry x="240" y="600" width="180" height="30" as="geometry" />
        </mxCell>
        <mxCell id="s8Pb07IwUwWcLUqy1bKp-133" value="" style="shape=tableRow;horizontal=0;startSize=0;swimlaneHead=0;swimlaneBody=0;fillColor=none;collapsible=0;dropTarget=0;points=[[0,0.5],[1,0.5]];portConstraint=eastwest;top=0;left=0;right=0;bottom=0;" vertex="1" parent="s8Pb07IwUwWcLUqy1bKp-132">
          <mxGeometry width="180" height="30" as="geometry" />
        </mxCell>
        <mxCell id="s8Pb07IwUwWcLUqy1bKp-134" value="" style="shape=partialRectangle;connectable=0;fillColor=none;top=0;left=0;bottom=0;right=0;editable=1;overflow=hidden;" vertex="1" parent="s8Pb07IwUwWcLUqy1bKp-133">
          <mxGeometry width="30" height="30" as="geometry">
            <mxRectangle width="30" height="30" as="alternateBounds" />
          </mxGeometry>
        </mxCell>
        <mxCell id="s8Pb07IwUwWcLUqy1bKp-135" value="1..*" style="shape=partialRectangle;connectable=0;fillColor=none;top=0;left=0;bottom=0;right=0;align=left;spacingLeft=6;overflow=hidden;" vertex="1" parent="s8Pb07IwUwWcLUqy1bKp-133">
          <mxGeometry x="30" width="150" height="30" as="geometry">
            <mxRectangle width="150" height="30" as="alternateBounds" />
          </mxGeometry>
        </mxCell>
        <mxCell id="s8Pb07IwUwWcLUqy1bKp-136" value="" style="shape=table;startSize=0;container=1;collapsible=1;childLayout=tableLayout;fixedRows=1;rowLines=0;fontStyle=0;align=center;resizeLast=1;strokeColor=none;fillColor=none;collapsible=0;whiteSpace=wrap;html=1;" vertex="1" parent="1">
          <mxGeometry x="324" y="430" width="180" height="30" as="geometry" />
        </mxCell>
        <mxCell id="s8Pb07IwUwWcLUqy1bKp-137" value="" style="shape=tableRow;horizontal=0;startSize=0;swimlaneHead=0;swimlaneBody=0;fillColor=none;collapsible=0;dropTarget=0;points=[[0,0.5],[1,0.5]];portConstraint=eastwest;top=0;left=0;right=0;bottom=0;" vertex="1" parent="s8Pb07IwUwWcLUqy1bKp-136">
          <mxGeometry width="180" height="30" as="geometry" />
        </mxCell>
        <mxCell id="s8Pb07IwUwWcLUqy1bKp-138" value="" style="shape=partialRectangle;connectable=0;fillColor=none;top=0;left=0;bottom=0;right=0;editable=1;overflow=hidden;" vertex="1" parent="s8Pb07IwUwWcLUqy1bKp-137">
          <mxGeometry width="30" height="30" as="geometry">
            <mxRectangle width="30" height="30" as="alternateBounds" />
          </mxGeometry>
        </mxCell>
        <mxCell id="s8Pb07IwUwWcLUqy1bKp-139" value="1..*" style="shape=partialRectangle;connectable=0;fillColor=none;top=0;left=0;bottom=0;right=0;align=left;spacingLeft=6;overflow=hidden;" vertex="1" parent="s8Pb07IwUwWcLUqy1bKp-137">
          <mxGeometry x="30" width="150" height="30" as="geometry">
            <mxRectangle width="150" height="30" as="alternateBounds" />
          </mxGeometry>
        </mxCell>
        <mxCell id="s8Pb07IwUwWcLUqy1bKp-140" value="" style="shape=table;startSize=0;container=1;collapsible=1;childLayout=tableLayout;fixedRows=1;rowLines=0;fontStyle=0;align=center;resizeLast=1;strokeColor=none;fillColor=none;collapsible=0;whiteSpace=wrap;html=1;" vertex="1" parent="1">
          <mxGeometry x="270" y="740" width="180" height="30" as="geometry" />
        </mxCell>
        <mxCell id="s8Pb07IwUwWcLUqy1bKp-141" value="" style="shape=tableRow;horizontal=0;startSize=0;swimlaneHead=0;swimlaneBody=0;fillColor=none;collapsible=0;dropTarget=0;points=[[0,0.5],[1,0.5]];portConstraint=eastwest;top=0;left=0;right=0;bottom=0;" vertex="1" parent="s8Pb07IwUwWcLUqy1bKp-140">
          <mxGeometry width="180" height="30" as="geometry" />
        </mxCell>
        <mxCell id="s8Pb07IwUwWcLUqy1bKp-142" value="" style="shape=partialRectangle;connectable=0;fillColor=none;top=0;left=0;bottom=0;right=0;editable=1;overflow=hidden;" vertex="1" parent="s8Pb07IwUwWcLUqy1bKp-141">
          <mxGeometry width="30" height="30" as="geometry">
            <mxRectangle width="30" height="30" as="alternateBounds" />
          </mxGeometry>
        </mxCell>
        <mxCell id="s8Pb07IwUwWcLUqy1bKp-143" value="1..*" style="shape=partialRectangle;connectable=0;fillColor=none;top=0;left=0;bottom=0;right=0;align=left;spacingLeft=6;overflow=hidden;" vertex="1" parent="s8Pb07IwUwWcLUqy1bKp-141">
          <mxGeometry x="30" width="150" height="30" as="geometry">
            <mxRectangle width="150" height="30" as="alternateBounds" />
          </mxGeometry>
        </mxCell>
        <mxCell id="s8Pb07IwUwWcLUqy1bKp-144" value="" style="shape=table;startSize=0;container=1;collapsible=1;childLayout=tableLayout;fixedRows=1;rowLines=0;fontStyle=0;align=center;resizeLast=1;strokeColor=none;fillColor=none;collapsible=0;whiteSpace=wrap;html=1;" vertex="1" parent="1">
          <mxGeometry x="324" y="360" width="180" height="30" as="geometry" />
        </mxCell>
        <mxCell id="s8Pb07IwUwWcLUqy1bKp-145" value="" style="shape=tableRow;horizontal=0;startSize=0;swimlaneHead=0;swimlaneBody=0;fillColor=none;collapsible=0;dropTarget=0;points=[[0,0.5],[1,0.5]];portConstraint=eastwest;top=0;left=0;right=0;bottom=0;" vertex="1" parent="s8Pb07IwUwWcLUqy1bKp-144">
          <mxGeometry width="180" height="30" as="geometry" />
        </mxCell>
        <mxCell id="s8Pb07IwUwWcLUqy1bKp-146" value="" style="shape=partialRectangle;connectable=0;fillColor=none;top=0;left=0;bottom=0;right=0;editable=1;overflow=hidden;" vertex="1" parent="s8Pb07IwUwWcLUqy1bKp-145">
          <mxGeometry width="30" height="30" as="geometry">
            <mxRectangle width="30" height="30" as="alternateBounds" />
          </mxGeometry>
        </mxCell>
        <mxCell id="s8Pb07IwUwWcLUqy1bKp-147" value="1..*" style="shape=partialRectangle;connectable=0;fillColor=none;top=0;left=0;bottom=0;right=0;align=left;spacingLeft=6;overflow=hidden;" vertex="1" parent="s8Pb07IwUwWcLUqy1bKp-145">
          <mxGeometry x="30" width="150" height="30" as="geometry">
            <mxRectangle width="150" height="30" as="alternateBounds" />
          </mxGeometry>
        </mxCell>
        <mxCell id="s8Pb07IwUwWcLUqy1bKp-148" value="" style="shape=table;startSize=0;container=1;collapsible=1;childLayout=tableLayout;fixedRows=1;rowLines=0;fontStyle=0;align=center;resizeLast=1;strokeColor=none;fillColor=none;collapsible=0;whiteSpace=wrap;html=1;" vertex="1" parent="1">
          <mxGeometry x="440" y="770" width="180" height="30" as="geometry" />
        </mxCell>
        <mxCell id="s8Pb07IwUwWcLUqy1bKp-149" value="" style="shape=tableRow;horizontal=0;startSize=0;swimlaneHead=0;swimlaneBody=0;fillColor=none;collapsible=0;dropTarget=0;points=[[0,0.5],[1,0.5]];portConstraint=eastwest;top=0;left=0;right=0;bottom=0;" vertex="1" parent="s8Pb07IwUwWcLUqy1bKp-148">
          <mxGeometry width="180" height="30" as="geometry" />
        </mxCell>
        <mxCell id="s8Pb07IwUwWcLUqy1bKp-150" value="" style="shape=partialRectangle;connectable=0;fillColor=none;top=0;left=0;bottom=0;right=0;editable=1;overflow=hidden;" vertex="1" parent="s8Pb07IwUwWcLUqy1bKp-149">
          <mxGeometry width="30" height="30" as="geometry">
            <mxRectangle width="30" height="30" as="alternateBounds" />
          </mxGeometry>
        </mxCell>
        <mxCell id="s8Pb07IwUwWcLUqy1bKp-151" value="1..*" style="shape=partialRectangle;connectable=0;fillColor=none;top=0;left=0;bottom=0;right=0;align=left;spacingLeft=6;overflow=hidden;" vertex="1" parent="s8Pb07IwUwWcLUqy1bKp-149">
          <mxGeometry x="30" width="150" height="30" as="geometry">
            <mxRectangle width="150" height="30" as="alternateBounds" />
          </mxGeometry>
        </mxCell>
        <mxCell id="s8Pb07IwUwWcLUqy1bKp-152" value="" style="shape=table;startSize=0;container=1;collapsible=1;childLayout=tableLayout;fixedRows=1;rowLines=0;fontStyle=0;align=center;resizeLast=1;strokeColor=none;fillColor=none;collapsible=0;whiteSpace=wrap;html=1;" vertex="1" parent="1">
          <mxGeometry x="610" y="140" width="180" height="30" as="geometry" />
        </mxCell>
        <mxCell id="s8Pb07IwUwWcLUqy1bKp-153" value="" style="shape=tableRow;horizontal=0;startSize=0;swimlaneHead=0;swimlaneBody=0;fillColor=none;collapsible=0;dropTarget=0;points=[[0,0.5],[1,0.5]];portConstraint=eastwest;top=0;left=0;right=0;bottom=0;" vertex="1" parent="s8Pb07IwUwWcLUqy1bKp-152">
          <mxGeometry width="180" height="30" as="geometry" />
        </mxCell>
        <mxCell id="s8Pb07IwUwWcLUqy1bKp-154" value="" style="shape=partialRectangle;connectable=0;fillColor=none;top=0;left=0;bottom=0;right=0;editable=1;overflow=hidden;" vertex="1" parent="s8Pb07IwUwWcLUqy1bKp-153">
          <mxGeometry width="30" height="30" as="geometry">
            <mxRectangle width="30" height="30" as="alternateBounds" />
          </mxGeometry>
        </mxCell>
        <mxCell id="s8Pb07IwUwWcLUqy1bKp-155" value="1..*" style="shape=partialRectangle;connectable=0;fillColor=none;top=0;left=0;bottom=0;right=0;align=left;spacingLeft=6;overflow=hidden;" vertex="1" parent="s8Pb07IwUwWcLUqy1bKp-153">
          <mxGeometry x="30" width="150" height="30" as="geometry">
            <mxRectangle width="150" height="30" as="alternateBounds" />
          </mxGeometry>
        </mxCell>
        <mxCell id="s8Pb07IwUwWcLUqy1bKp-156" value="" style="shape=table;startSize=0;container=1;collapsible=1;childLayout=tableLayout;fixedRows=1;rowLines=0;fontStyle=0;align=center;resizeLast=1;strokeColor=none;fillColor=none;collapsible=0;whiteSpace=wrap;html=1;" vertex="1" parent="1">
          <mxGeometry x="660" y="630" width="180" height="30" as="geometry" />
        </mxCell>
        <mxCell id="s8Pb07IwUwWcLUqy1bKp-157" value="" style="shape=tableRow;horizontal=0;startSize=0;swimlaneHead=0;swimlaneBody=0;fillColor=none;collapsible=0;dropTarget=0;points=[[0,0.5],[1,0.5]];portConstraint=eastwest;top=0;left=0;right=0;bottom=0;" vertex="1" parent="s8Pb07IwUwWcLUqy1bKp-156">
          <mxGeometry width="180" height="30" as="geometry" />
        </mxCell>
        <mxCell id="s8Pb07IwUwWcLUqy1bKp-158" value="" style="shape=partialRectangle;connectable=0;fillColor=none;top=0;left=0;bottom=0;right=0;editable=1;overflow=hidden;" vertex="1" parent="s8Pb07IwUwWcLUqy1bKp-157">
          <mxGeometry width="30" height="30" as="geometry">
            <mxRectangle width="30" height="30" as="alternateBounds" />
          </mxGeometry>
        </mxCell>
        <mxCell id="s8Pb07IwUwWcLUqy1bKp-159" value="1..1" style="shape=partialRectangle;connectable=0;fillColor=none;top=0;left=0;bottom=0;right=0;align=left;spacingLeft=6;overflow=hidden;" vertex="1" parent="s8Pb07IwUwWcLUqy1bKp-157">
          <mxGeometry x="30" width="150" height="30" as="geometry">
            <mxRectangle width="150" height="30" as="alternateBounds" />
          </mxGeometry>
        </mxCell>
        <mxCell id="s8Pb07IwUwWcLUqy1bKp-160" value="" style="shape=table;startSize=0;container=1;collapsible=1;childLayout=tableLayout;fixedRows=1;rowLines=0;fontStyle=0;align=center;resizeLast=1;strokeColor=none;fillColor=none;collapsible=0;whiteSpace=wrap;html=1;" vertex="1" parent="1">
          <mxGeometry x="710" y="740" width="180" height="30" as="geometry" />
        </mxCell>
        <mxCell id="s8Pb07IwUwWcLUqy1bKp-161" value="" style="shape=tableRow;horizontal=0;startSize=0;swimlaneHead=0;swimlaneBody=0;fillColor=none;collapsible=0;dropTarget=0;points=[[0,0.5],[1,0.5]];portConstraint=eastwest;top=0;left=0;right=0;bottom=0;" vertex="1" parent="s8Pb07IwUwWcLUqy1bKp-160">
          <mxGeometry width="180" height="30" as="geometry" />
        </mxCell>
        <mxCell id="s8Pb07IwUwWcLUqy1bKp-162" value="" style="shape=partialRectangle;connectable=0;fillColor=none;top=0;left=0;bottom=0;right=0;editable=1;overflow=hidden;" vertex="1" parent="s8Pb07IwUwWcLUqy1bKp-161">
          <mxGeometry width="30" height="30" as="geometry">
            <mxRectangle width="30" height="30" as="alternateBounds" />
          </mxGeometry>
        </mxCell>
        <mxCell id="s8Pb07IwUwWcLUqy1bKp-163" value="1..*" style="shape=partialRectangle;connectable=0;fillColor=none;top=0;left=0;bottom=0;right=0;align=left;spacingLeft=6;overflow=hidden;" vertex="1" parent="s8Pb07IwUwWcLUqy1bKp-161">
          <mxGeometry x="30" width="150" height="30" as="geometry">
            <mxRectangle width="150" height="30" as="alternateBounds" />
          </mxGeometry>
        </mxCell>
        <mxCell id="s8Pb07IwUwWcLUqy1bKp-172" value="" style="shape=table;startSize=0;container=1;collapsible=1;childLayout=tableLayout;fixedRows=1;rowLines=0;fontStyle=0;align=center;resizeLast=1;strokeColor=none;fillColor=none;collapsible=0;whiteSpace=wrap;html=1;" vertex="1" parent="1">
          <mxGeometry x="30" y="740" width="180" height="30" as="geometry" />
        </mxCell>
        <mxCell id="s8Pb07IwUwWcLUqy1bKp-173" value="" style="shape=tableRow;horizontal=0;startSize=0;swimlaneHead=0;swimlaneBody=0;fillColor=none;collapsible=0;dropTarget=0;points=[[0,0.5],[1,0.5]];portConstraint=eastwest;top=0;left=0;right=0;bottom=0;" vertex="1" parent="s8Pb07IwUwWcLUqy1bKp-172">
          <mxGeometry width="180" height="30" as="geometry" />
        </mxCell>
        <mxCell id="s8Pb07IwUwWcLUqy1bKp-174" value="" style="shape=partialRectangle;connectable=0;fillColor=none;top=0;left=0;bottom=0;right=0;editable=1;overflow=hidden;" vertex="1" parent="s8Pb07IwUwWcLUqy1bKp-173">
          <mxGeometry width="30" height="30" as="geometry">
            <mxRectangle width="30" height="30" as="alternateBounds" />
          </mxGeometry>
        </mxCell>
        <mxCell id="s8Pb07IwUwWcLUqy1bKp-175" value="1..*" style="shape=partialRectangle;connectable=0;fillColor=none;top=0;left=0;bottom=0;right=0;align=left;spacingLeft=6;overflow=hidden;" vertex="1" parent="s8Pb07IwUwWcLUqy1bKp-173">
          <mxGeometry x="30" width="150" height="30" as="geometry">
            <mxRectangle width="150" height="30" as="alternateBounds" />
          </mxGeometry>
        </mxCell>
      </root>
    </mxGraphModel>
  </diagram>
</mxfile>
